<svg xmlns="http://www.w3.org/2000/svg" width="30.429" height="25" viewBox="0 0 30.429 25">
  <g id="アートワーク_7" data-name="アートワーク 7" transform="translate(15.215 12.5)">
    <path id="パス_35" data-name="パス 35" d="M27.441,6.389V7.2A17.66,17.66,0,0,1,9.645,25,17.66,17.66,0,0,1,0,22.147H1.494A12.5,12.5,0,0,0,9.237,19.43,6.249,6.249,0,0,1,3.4,15.083H6.249A6.249,6.249,0,0,1,1.223,8.97h0a6.249,6.249,0,0,0,2.853.679A6.249,6.249,0,0,1,1.358,4.487a6.113,6.113,0,0,1,.815-3.26A17.8,17.8,0,0,0,15.079,7.747a6.113,6.113,0,0,1-.136-1.358A6.249,6.249,0,0,1,25.81,2.042a12.5,12.5,0,0,0,3.8-1.494,6.249,6.249,0,0,1-2.717,3.4,12.633,12.633,0,0,0,3.532-.951,12.362,12.362,0,0,1-2.989,3.4Z" transform="translate(-15.215 -12.5)" fill="#fff"/>
  </g>
</svg>
