<svg xmlns="http://www.w3.org/2000/svg" width="25.61" height="25" viewBox="0 0 25.61 25">
  <g id="アートワーク_11" data-name="アートワーク 11" transform="translate(12.805 12.5)">
    <path id="パス_56" data-name="パス 56" d="M12.815,0A12.815,12.815,0,0,0,8.763,24.972c.636.127.87-.276.87-.615s-.021-1.315-.021-2.376C6.047,22.744,5.3,20.453,5.3,20.453a3.282,3.282,0,0,0-1.421-1.867c-1.167-.785.085-.785.085-.785a2.685,2.685,0,0,1,1.973,1.315,2.726,2.726,0,0,0,3.734,1.061,2.723,2.723,0,0,1,.806-1.719c-2.843-.3-5.834-1.4-5.834-6.322A4.965,4.965,0,0,1,5.963,8.7,4.629,4.629,0,0,1,6.09,5.3S7.172,4.965,9.612,6.62a12.157,12.157,0,0,1,6.407,0C18.459,4.965,19.541,5.3,19.541,5.3A4.629,4.629,0,0,1,19.668,8.7a4.943,4.943,0,0,1,1.315,3.437c0,4.922-2.992,6-5.856,6.322A3.032,3.032,0,0,1,16,20.834c0,1.719-.021,3.1-.021,3.522s.233.743.87.615A12.815,12.815,0,0,0,12.815,0" transform="translate(-12.805 -12.5)" fill="#fff" fill-rule="evenodd"/>
  </g>
</svg>
