<?xml version="1.0" encoding="utf-8"?>
<!-- Generator: Adobe Illustrator 23.0.1, SVG Export Plug-In . SVG Version: 6.00 Build 0)  -->
<svg version="1.1" id="レイヤー_1" xmlns="http://www.w3.org/2000/svg" xmlns:xlink="http://www.w3.org/1999/xlink" x="0px"
	 y="0px" viewBox="0 0 465.2 242.8" style="enable-background:new 0 0 465.2 242.8;" xml:space="preserve">
<style type="text/css">
	.st0{fill:#79EEF2;}
	.st1{fill:#EDF279;}
	.st2{fill:#FFFFFF;}
</style>
<g>
	<path id="パス_358" class="st0" d="M260.3,237.9c-3.1,3.3-7.2,4.9-12.3,4.9s-9.2-1.6-12.3-4.9c-3.1-3.3-4.7-7.6-4.7-13.1
		c0-5.4,1.6-9.8,4.7-13.1c3.1-3.3,7.2-4.9,12.3-4.9s9.2,1.6,12.3,4.9c3.1,3.3,4.7,7.6,4.7,13.1C265,230.2,263.4,234.6,260.3,237.9z
		 M237.5,236.4c2.7,2.9,6.5,4.5,10.5,4.4c4,0.2,7.8-1.4,10.5-4.4c2.7-2.9,4-6.8,4-11.6s-1.3-8.7-4-11.6c-2.7-2.9-6.6-4.5-10.5-4.4
		c-4-0.2-7.8,1.4-10.5,4.4c-2.7,2.9-4,6.8-4,11.6S234.8,233.5,237.5,236.4z M273.6,207.3v15.9h0.1l17.3-15.9h3.1l-18.4,16.8
		l18.9,18.2h-3.1L273.7,225h-0.1v17.3h-2.4v-35H273.6z M301.7,229c0,7.8,3.3,11.7,10,11.7s10-3.9,10-11.7v-21.7h2.4V229
		c0,4.5-1.1,7.9-3.2,10.3c-2.1,2.4-5.2,3.6-9.2,3.5c-4,0-7.1-1.2-9.2-3.5c-2.1-2.4-3.2-5.8-3.2-10.3v-21.7h2.4L301.7,229L301.7,229z
		 M332,242.3v-35h2.7l13.3,21.6h0.1l13.3-21.6h2.8v35h-2.4V211h-0.1l-12.5,20.1h-2.4L334.3,211h-0.1v31.3H332z M399.8,237.9
		c-3.1,3.3-7.2,4.9-12.3,4.9c-5.1,0-9.2-1.6-12.3-4.9c-3.1-3.3-4.7-7.6-4.7-13.1c0-5.4,1.6-9.8,4.7-13.1s7.2-4.9,12.3-4.9
		s9.2,1.6,12.3,4.9c3.1,3.3,4.7,7.6,4.7,13.1C404.5,230.2,403,234.6,399.8,237.9z M377,236.4c2.7,2.9,6.5,4.5,10.5,4.4
		c4,0.2,7.8-1.4,10.5-4.4c2.7-2.9,4-6.8,4-11.6s-1.3-8.7-4-11.6c-2.7-2.9-6.6-4.5-10.5-4.4c-4-0.2-7.8,1.4-10.5,4.4
		c-2.7,2.9-4,6.8-4,11.6S374.4,233.5,377,236.4L377,236.4z M413.2,207.3v15.9h0.1l17.3-15.9h3.1l-18.4,16.8l18.9,18.2h-3.1
		L413.3,225h-0.1v17.3h-2.4v-35H413.2z M441.3,229c0,7.8,3.3,11.7,10,11.7s10-3.9,10-11.7v-21.7h2.4V229c0,4.5-1.1,7.9-3.2,10.3
		c-2.1,2.4-5.2,3.6-9.2,3.5c-4,0-7.1-1.2-9.2-3.5c-2.1-2.4-3.2-5.8-3.2-10.3v-21.7h2.4L441.3,229z"/>
	<path id="パス_358_1_" class="st1" d="M192.4,242.3v-35h2.7l13.3,21.6h0.1l13.5-21.6h2.8v35h-2.4V211h-0.1l-12.5,20.1h-2.4
		L194.9,211h-0.1v31.3H192.4z"/>
	<path id="パス_358_2_" class="st2" d="M10.5,208.9c-2-0.1-4.1,0.4-5.7,1.6c-1.4,1.1-2.1,2.8-2,4.5c0,3.5,2.6,6.1,7.8,7.7
		c3.7,1.1,6.4,2.5,8,4.2c1.7,1.8,2.5,4.1,2.4,6.6c0.2,2.6-0.8,5.2-2.8,6.9c-1.8,1.6-4.5,2.4-7.9,2.4c-3.7,0.1-7.3-1.1-10.3-3.2
		l0.9-1.9c2.7,2,6.1,3.1,9.5,3.1c2.7,0,4.7-0.6,6.1-1.9c1.5-1.4,2.2-3.4,2.1-5.4c0.1-1.9-0.6-3.8-1.9-5.2c-1.8-1.6-4-2.8-6.4-3.4
		c-6.7-2-10-5.3-10-9.9c-0.1-2.3,0.9-4.5,2.7-5.9c1.8-1.5,4.3-2.2,7.5-2.2c3.4,0,6.8,0.7,9.8,2.3l-0.7,1.9
		C16.8,209.6,13.7,208.8,10.5,208.9z M29.7,229c0,7.8,3.3,11.7,10,11.7s10-3.9,10-11.7v-21.7h2.4V229c0,4.5-1.1,7.9-3.2,10.3
		c-2.1,2.4-5.2,3.6-9.2,3.5c-4,0-7.1-1.2-9.2-3.5c-2.1-2.4-3.2-5.8-3.2-10.3v-21.7h2.4C29.7,207.3,29.7,229,29.7,229z M60,242.3v-35
		h2.7L76,228.9h0.1l13.5-21.6h2.8v35H90V211h-0.1l-12.5,20.1H75L62.5,211h-0.1v31.3H60z M102.5,242.3v-35h2.5v35H102.5z M123,208.9
		c-1.8,0-3.6,0.2-5.4,0.6v30.7c1.8,0.4,3.6,0.6,5.4,0.6c5.2,0,9.2-1.4,11.9-4.2s4.1-6.9,4.1-12.2c0-5.1-1.4-8.9-4.1-11.5
		C132.2,210.2,128.2,208.9,123,208.9z M141.2,224.3c0,6-1.6,10.6-4.7,13.8c-3.1,3.2-7.6,4.7-13.5,4.7c-2.6,0-5.3-0.2-7.8-0.8v-34.5
		c2.6-0.5,5.2-0.8,7.8-0.8c5.9,0,10.4,1.5,13.5,4.5C139.6,214.4,141.2,218.7,141.2,224.3z M143.7,242.3l13.1-35h2.9l13.2,35h-2.6
		l-4-11.1h-16l-4,11.1H143.7z M151,229.2h14.5l-7.2-19.8h-0.1L151,229.2z"/>
</g>
<g>
	<polygon class="st2" points="188.8,173.3 218.8,120.2 227.3,135.3 231.8,143.3 236.3,135.3 244.9,120.2 274.9,173.3 283.9,173.3 
		249.4,112.2 244.8,104.3 240.4,112.2 231.8,127.3 223.3,112.2 218.8,104.3 214.3,112.2 179.8,173.3 	"/>
	<polygon class="st2" points="214.3,91.3 218.8,99.3 223.3,91.3 231.8,76.2 240.3,91.3 244.8,99.3 249.3,91.3 266.9,60.3 
		257.9,60.3 244.8,83.3 236.3,68.2 231.8,60.3 227.3,68.2 218.8,83.3 205.8,60.3 196.8,60.3 	"/>
	<polygon class="st2" points="229.8,22.3 244.9,30.8 252.8,35.3 244.9,39.8 213.8,57.3 236.8,35.3 236.9,35.3 221.8,26.8 
		213.8,22.3 221.8,17.8 252.8,0.3 	"/>
</g>
</svg>
