<?xml version="1.0" encoding="utf-8"?>
<!-- Generator: Adobe Illustrator 23.0.1, SVG Export Plug-In . SVG Version: 6.00 Build 0)  -->
<svg version="1.1" id="レイヤー_1" xmlns="http://www.w3.org/2000/svg" xmlns:xlink="http://www.w3.org/1999/xlink" x="0px"
	 y="0px" viewBox="0 0 104 173" style="enable-background:new 0 0 104 173;" xml:space="preserve">
<style type="text/css">
	.st0{opacity:0.3;}
	.st1{fill:#CAEAE4;}
</style>
<g class="st0">
	<polygon class="st1" points="9,173 39,119.9 47.5,135 52,143 56.5,135 65,119.9 95,173 104,173 69.5,112 65,104 60.5,112 52,127 
		43.5,112 39,104 34.5,112 0,173 	"/>
	<polygon class="st1" points="34.5,91 39,99 43.5,91 52,76 60.5,91 65,99 69.5,91 87,60 78,60 65,83 56.5,68 52,60 47.5,68 39,83 
		26,60 17,60 	"/>
	<polygon class="st1" points="50,22 65,30.5 73,35 65,39.5 34,57 57,35 57,35 42,26.5 34,22 42,17.5 73,0 	"/>
</g>
</svg>
