<svg xmlns="http://www.w3.org/2000/svg" width="25.232" height="24" viewBox="0 0 25.232 24">
  <g id="アートワーク_10" data-name="アートワーク 10" transform="translate(12.616 12)">
    <g id="グループ化_29" data-name="グループ化 29" transform="translate(-12.616 -12)">
      <path id="パス_47" data-name="パス 47" d="M22.311,9.255a4.258,4.258,0,0,1,2.674-3.941L25.2,0A43.277,43.277,0,0,1,0,0L.211,5.314A4.258,4.258,0,0,1,2.886,9.255a4.223,4.223,0,0,1-2.358,3.8L.211,18.088c8.9-1.267,16.716-1.548,24.774,0l-.317-5.067a4.223,4.223,0,0,1-2.358-3.765Zm-6.229,3.977a3.906,3.906,0,0,1-1.021.88A4.223,4.223,0,0,1,13.9,14.6a4.751,4.751,0,0,1-1.161.141,5.278,5.278,0,0,1-1.232-.141,4.645,4.645,0,0,1-1.126-.422,3.66,3.66,0,0,1-.95-.739A3.2,3.2,0,0,1,8.8,12.387a3.589,3.589,0,0,1-.246-1.337V7.812A3.589,3.589,0,0,1,8.8,6.475a3.238,3.238,0,0,1,.633-1.021,3.7,3.7,0,0,1,.95-.739,4.5,4.5,0,0,1,1.126-.422,5.279,5.279,0,0,1,1.232-.141,4.786,4.786,0,0,1,1.161.141,4.258,4.258,0,0,1,1.161.457,3.484,3.484,0,0,1,.985.88,3.625,3.625,0,0,1,.633,1.337l-2.393.739a1.408,1.408,0,0,0-.352-.669,1.513,1.513,0,0,0-.6-.352,1.865,1.865,0,0,0-.669-.07,1.8,1.8,0,0,0-.633.176,1.267,1.267,0,0,0-.457.387,1.021,1.021,0,0,0-.176.6V11.05a1.091,1.091,0,0,0,.176.6,1.232,1.232,0,0,0,.457.422,1.619,1.619,0,0,0,.633.176,1.76,1.76,0,0,0,.669-.07,1.584,1.584,0,0,0,.6-.387,1.654,1.654,0,0,0,.422-.669l2.463.809a4.223,4.223,0,0,1-.739,1.3Z" fill="#fff"/>
      <g id="グループ化_28" data-name="グループ化 28" transform="translate(0.034 19.003)">
        <path id="パス_48" data-name="パス 48" d="M2.208,56.734a.6.6,0,0,1-.141.246l-.211.141H1.575l-.246-.07-.141-.106a.387.387,0,0,1-.07-.211v-1.2a.387.387,0,0,1,.07-.211l.176-.141.246-.07h.211l.211.141a.528.528,0,0,1,.141.211l.88-.282a1.337,1.337,0,0,0-.246-.493,1.267,1.267,0,0,0-.352-.317L2.032,54.2H1.61l-.457.07-.387.141-.352.282a1.2,1.2,0,0,0-.246.387,1.3,1.3,0,0,0-.07.457v1.2a1.3,1.3,0,0,0,.07.493,1.161,1.161,0,0,0,.246.352l.352.282.422.176H1.61L2.032,58l.422-.176a1.408,1.408,0,0,0,.387-.317,1.548,1.548,0,0,0,.282-.493Z" transform="translate(-0.095 -54.13)" fill="#fff"/>
        <path id="パス_49" data-name="パス 49" d="M10.148,54.985h.246l.176.141a.282.282,0,0,1,.07.211V56.6a.352.352,0,0,1-.07.211l-.176.141h-.246v.915h0l.563-.07a1.513,1.513,0,0,0,.493-.246,1.232,1.232,0,0,0,.352-.422,1.337,1.337,0,0,0,.141-.6V55.372a1.3,1.3,0,0,0-.141-.6,1.232,1.232,0,0,0-.352-.422,1.584,1.584,0,0,0-.493-.246L10.148,54h0Zm0,2.041H9.9l-.176-.141a.352.352,0,0,1-.07-.211v-1.3a.317.317,0,0,1,.07-.211l.176-.141h.246V54l-.563.07a1.584,1.584,0,0,0-.493.282,1.232,1.232,0,0,0-.352.422,1.3,1.3,0,0,0-.141.6V56.6a1.337,1.337,0,0,0,.141.6,1.2,1.2,0,0,0,.352.422,1.548,1.548,0,0,0,.493.246l.563.07Z" transform="translate(-5.607 -54)" fill="#fff"/>
        <path id="パス_50" data-name="パス 50" d="M39.648,57.941h.387l.422-.141.352-.246a1.161,1.161,0,0,0,.246-.387,1.2,1.2,0,0,0,.106-.493V55.337a1.548,1.548,0,0,0-.176-.633,1.161,1.161,0,0,0-.352-.422,1.443,1.443,0,0,0-.493-.211L39.648,54v.774l.246.07.176.141a.387.387,0,0,1,.07.246v1.443a.422.422,0,0,1-.106.211l-.176.141-.211.07Zm-.528.739V57.8l.457.106h.07v-.774h-.282l-.246-.07V54.845l.246-.07h.282V54h-.563l-.493.106-.493.141V59Z" transform="translate(-24.726 -54)" fill="#fff"/>
        <path id="パス_51" data-name="パス 51" d="M48.877,58.041h.6l.493-.106.457-.141V55.4a1.267,1.267,0,0,0-.106-.563A1.2,1.2,0,0,0,50,54.452a1.478,1.478,0,0,0-.457-.246l-.528-.106h-.141v.809h0l.282.106a.563.563,0,0,1,.211.211.844.844,0,0,1,.07.352l-.317-.106h-.246v.774H49.4v.88h-.528Zm-.07-2.534a1.654,1.654,0,0,0-.633.106,1.232,1.232,0,0,0-.457.282,1.161,1.161,0,0,0-.246.422,1.236,1.236,0,0,0,.035.915,1.267,1.267,0,0,0,.282.422,1.443,1.443,0,0,0,.493.282l.563.106v-.774l-.246-.07-.211-.176a.457.457,0,0,1-.07-.246.422.422,0,0,1,.07-.246l.176-.176.282-.07v-.774Zm.07-1.408-.422.07-.493.211a1.478,1.478,0,0,0-.422.387l.493.457.246-.176.282-.106h.282Z" transform="translate(-30.752 -54.065)" fill="#fff"/>
        <path id="パス_52" data-name="パス 52" d="M56.5,57.631a1.619,1.619,0,0,0,.387.387l.457.211.528.07.528-.07a1.337,1.337,0,0,0,.457-.246,1.126,1.126,0,0,0,.317-.387,1.267,1.267,0,0,0,.106-.528,1.021,1.021,0,0,0-.106-.457.985.985,0,0,0-.246-.317l-.352-.211-.387-.141h-.141l-.176-.07-.141-.106a.211.211,0,0,1-.035-.141.317.317,0,0,1,.106-.211l.211-.07h.246l.246.07.176.141.493-.7-.422-.246L58.33,54.5h-.457a1.583,1.583,0,0,0-.6.106,1.232,1.232,0,0,0-.422.317,1.126,1.126,0,0,0-.246.422,1.091,1.091,0,0,0,.141.915,1.3,1.3,0,0,0,.422.387,1.936,1.936,0,0,0,.633.211l.282.106a.3.3,0,0,1,.07.387.246.246,0,0,1-.176.141h-.317l-.387-.141-.352-.246Z" transform="translate(-36.651 -54.324)" fill="#fff"/>
        <path id="パス_53" data-name="パス 53" d="M63.8,57.5a1.619,1.619,0,0,0,.387.387l.457.211.528.07.528-.07a1.337,1.337,0,0,0,.457-.246,1.126,1.126,0,0,0,.317-.387,1.267,1.267,0,0,0,.106-.528,1.021,1.021,0,0,0-.106-.457.985.985,0,0,0-.246-.317l-.352-.211-.387-.141h-.211l-.176-.07-.141-.106a.211.211,0,0,1-.035-.141.317.317,0,0,1,.106-.211l.211-.07h.246l.246.07.176.141.493-.7-.422-.317L65.56,54.3h-.352a1.583,1.583,0,0,0-.6.106,1.232,1.232,0,0,0-.422.317,1.126,1.126,0,0,0-.246.422,1.091,1.091,0,0,0,.141.915,1.267,1.267,0,0,0,.422.387,1.935,1.935,0,0,0,.633.211l.282.106a.3.3,0,0,1,.07.387.282.282,0,0,1-.176.141H65l-.387-.141-.352-.246Z" transform="translate(-41.382 -54.194)" fill="#fff"/>
        <path id="パス_54" data-name="パス 54" d="M19.948,54.985h.246l.176.141a.282.282,0,0,1,.07.211v2.534h1.021v-2.5a1.3,1.3,0,0,0-.141-.6,1.267,1.267,0,0,0-.352-.422,1.548,1.548,0,0,0-.493-.246L19.948,54l-.563.07a1.584,1.584,0,0,0-.493.246,1.232,1.232,0,0,0-.352.422,1.3,1.3,0,0,0-.141.6v2.534H19.42v-2.5a.317.317,0,0,1,.07-.211l.176-.141Z" transform="translate(-11.958 -54)" fill="#fff"/>
        <path id="パス_55" data-name="パス 55" d="M29.748,54.985h.246l.176.141a.317.317,0,0,1,.07.211v2.534h1.021v-2.5a1.3,1.3,0,0,0-.141-.6,1.232,1.232,0,0,0-.352-.422,1.548,1.548,0,0,0-.493-.246L29.748,54l-.563.07a1.583,1.583,0,0,0-.493.246,1.232,1.232,0,0,0-.352.422,1.3,1.3,0,0,0-.141.6v2.534H29.22v-2.5a.317.317,0,0,1,.07-.211l.176-.141Z" transform="translate(-18.31 -54)" fill="#fff"/>
      </g>
    </g>
  </g>
</svg>
